<svg xmlns="http://www.w3.org/2000/svg" viewBox="0 0 800 400">
    <!-- Definitions for reuse -->
    <defs>
        <!-- Arrow marker -->
        <marker id="arrowhead" markerWidth="10" markerHeight="7" 
            refX="9" refY="3.5" orient="auto">
            <polygon points="0 0, 10 3.5, 0 7" fill="#666"/>
        </marker>
        <!-- Node patterns -->
        <pattern id="inactive-pattern" patternUnits="userSpaceOnUse" width="4" height="4">
            <path d="M-1,1 l2,-2 M0,4 l4,-4 M3,5 l2,-2" 
                style="stroke:#999; stroke-width:1"/>
        </pattern>
    </defs>

    <!-- Background -->
    <rect width="800" height="400" fill="#f8f9fa"/>
    
    <!-- Super-step boundaries -->
    <rect x="50" y="50" width="220" height="300" 
        fill="none" stroke="#ddd" stroke-width="2" stroke-dasharray="5,5"/>
    <rect x="290" y="50" width="220" height="300" 
        fill="none" stroke="#ddd" stroke-width="2" stroke-dasharray="5,5"/>
    <rect x="530" y="50" width="220" height="300" 
        fill="none" stroke="#ddd" stroke-width="2" stroke-dasharray="5,5"/>
    
    <!-- Super-step labels -->
    <text x="160" y="30" text-anchor="middle" fill="#666" font-size="14">
        超级步 1
    </text>
    <text x="400" y="30" text-anchor="middle" fill="#666" font-size="14">
        超级步 2
    </text>
    <text x="640" y="30" text-anchor="middle" fill="#666" font-size="14">
        超级步 3
    </text>

    <!-- Nodes in different states -->
    <!-- Super-step 1 -->
    <circle cx="120" cy="120" r="30" fill="url(#inactive-pattern)" stroke="#999"/>
    <text x="120" y="125" text-anchor="middle" fill="#666" font-size="12">Inactive</text>
    
    <circle cx="180" cy="220" r="30" fill="#4CAF50" stroke="#45a049"/>
    <text x="180" y="225" text-anchor="middle" fill="white" font-size="12">Active</text>
    
    <!-- Super-step 2 -->
    <circle cx="360" cy="120" r="30" fill="#4CAF50" stroke="#45a049"/>
    <text x="360" y="125" text-anchor="middle" fill="white" font-size="12">Active</text>
    
    <circle cx="420" cy="220" r="30" fill="#FF9800" stroke="#f57c00"/>
    <text x="420" y="225" text-anchor="middle" fill="white" font-size="12">Halt</text>
    
    <!-- Super-step 3 -->
    <circle cx="600" cy="120" r="30" fill="#FF9800" stroke="#f57c00"/>
    <text x="600" y="125" text-anchor="middle" fill="white" font-size="12">Halt</text>
    
    <circle cx="660" cy="220" r="30" fill="url(#inactive-pattern)" stroke="#999"/>
    <text x="660" y="225" text-anchor="middle" fill="#666" font-size="12">Inactive</text>

    <!-- Edges with messages -->
    <line x1="150" y1="120" x2="330" y2="120" 
        stroke="#666" stroke-width="2" marker-end="url(#arrowhead)"/>
    <line x1="210" y1="220" x2="390" y2="220" 
        stroke="#666" stroke-width="2" marker-end="url(#arrowhead)"/>
    <line x1="390" y1="120" x2="570" y2="120" 
        stroke="#666" stroke-width="2" marker-end="url(#arrowhead)"/>
    <line x1="450" y1="220" x2="630" y2="220" 
        stroke="#666" stroke-width="2" marker-end="url(#arrowhead)"/>
    
    <!-- Message labels -->
    <text x="240" y="100" fill="#666" font-size="10"></text>
    <text x="480" y="100" fill="#666" font-size="10"></text>

    <!-- Legend -->
    <rect x="50" y="340" width="700" height="50" fill="white" stroke="#ddd"/>
    <circle cx="80" cy="365" r="10" fill="url(#inactive-pattern)" stroke="#999"/>
    <text x="100" y="370" fill="#666" font-size="12">Inactive: 等待接收消息</text>
    <circle cx="280" cy="365" r="10" fill="#4CAF50"/>
    <text x="300" y="370" fill="#666" font-size="12">Active: 正在处理消息</text>
    <circle cx="480" cy="365" r="10" fill="#FF9800"/>
    <text x="500" y="370" fill="#666" font-size="12">Halt: 临时的"投票"状态</text>
    <line x1="640" y1="365" x2="680" y2="365" 
        stroke="#666" stroke-width="2" marker-end="url(#arrowhead)"/>
    <text x="680" y="370" fill="#666" font-size="12">消息流</text>
</svg>